# xmcd
#
# Track frame offsets:
#	150
#	10653
#	21684
#	34182
#	46573
#	56540
#	66626
#	75065
#	85062
#	95002
#	107075
#	117407
#	127680
#	138856
#	148447
#	162195
#	175060
#	187667
#	198879
#	208696
#	220879
#	228664
#	240100
#	251896
#	264311
#	275378
#	285298
#	296048
#	306879
#	315915
#	326058
#	334590
#	342127
#	350337
#	352314
#	354235
#
# Disc length: 4742 seconds
#
# Revision: 0
# Processed by: cddbd v1.5.2PL0 Copyright (c) Steve Scherf et al.
# Submitted via: audiograbber 1.83.01
#
DISCID=0b128424
DTITLE=George Jones - Birth Of A Legend - Disc 2
DYEAR=2016
DGENRE=Country
TTITLE0=I'm Ragged But I'm Right (alt)
TTITLE1=You Gotta Be My Baby (take 1)
TTITLE2=You Gotta Be My Baby (take 2)
TTITLE3=You Gotta Be My Baby (take 3)
TTITLE4=I've Got Five Dollars
TTITLE5=Run Boy
TTITLE6=Heartbreak Hotel (short ending)
TTITLE7=Yes I Know Why
TTITLE8=Cause I Love You
TTITLE9=You Gotta Be My Baby
TTITLE10=Rock It
TTITLE11=Rock It
TTITLE12=How Come It
TTITLE13=Boat Of Life
TTITLE14=Taggin' Along
TTITLE15=Yearning
TTITLE16=Yearning
TTITLE17=I'm With The Wrong One
TTITLE18=Sweet Dreams
TTITLE19=I Take The Chance
TTITLE20=Any Old Time
TTITLE21=Gonna Come Get You
TTITLE22=Gonna Come Get You (alt)
TTITLE23=Just One More
TTITLE24=No Money In This Deal
TTITLE25=I'm With The Wrong One (edit)
TTITLE26=I'm With The Wrong One
TTITLE27=You're Running Wild
TTITLE28=Singing The Blues
TTITLE29=Wasted Words
TTITLE30=I'm A One Woman Man
TTITLE31=Before I Met You
TTITLE32=Go Away With Me
TTITLE33=1956 Radio Spot 1, 1956
TTITLE34=1956 Radio Spot 2, 1956
TTITLE35=1956 Radio Spot 3, 1956
EXTD=
EXTT0=
EXTT1=
EXTT2=
EXTT3=
EXTT4=
EXTT5=
EXTT6=
EXTT7=
EXTT8=
EXTT9=
EXTT10=
EXTT11=
EXTT12=
EXTT13=
EXTT14=
EXTT15=
EXTT16=
EXTT17=
EXTT18=
EXTT19=
EXTT20=
EXTT21=
EXTT22=
EXTT23=
EXTT24=
EXTT25=
EXTT26=
EXTT27=
EXTT28=
EXTT29=
EXTT30=
EXTT31=
EXTT32=
EXTT33=
EXTT34=
EXTT35=
PLAYORDER=
